<svg version="1.0" xmlns="http://www.w3.org/2000/svg"
     width="868.000000pt" height="156.000000pt" viewBox="0 0 868.000000 156.000000"
     preserveAspectRatio="xMidYMid meet">

    <g transform="translate(0.000000,156.000000) scale(0.100000,-0.100000)"
       fill="#000000" stroke="none">
        <path d="M630 1495 c-215 -43 -408 -191 -505 -389 -60 -122 -78 -197 -78 -326
-1 -122 18 -209 67 -313 92 -198 272 -346 491 -404 67 -17 205 -18 3750 -18
3503 0 3683 1 3750 18 267 68 473 275 540 542 23 89 23 246 1 338 -54 228
-222 426 -434 512 -145 59 126 55 -3860 54 -2954 -1 -3670 -3 -3722 -14z m753
-155 c102 -39 161 -97 200 -197 l16 -42 -42 -6 c-185 -24 -221 -26 -229 -11
-51 91 -144 117 -244 70 -110 -52 -193 -313 -137 -431 36 -77 139 -110 245
-79 66 19 74 27 83 89 l7 47 -81 0 c-93 0 -89 -7 -64 105 l16 75 204 0 c156 0
203 -3 203 -12 0 -7 -19 -102 -42 -210 l-42 -197 -45 -20 c-209 -89 -431 -106
-564 -43 -78 36 -120 72 -154 129 -73 125 -68 326 13 484 40 80 148 183 231
221 130 59 312 71 426 28z m697 4 c0 -7 -180 -855 -186 -876 -5 -16 -19 -18
-119 -18 -63 0 -116 4 -119 8 -3 6 142 713 179 870 5 21 9 22 125 22 66 0 120
-3 120 -6z m2030 -6 c0 -7 -13 -73 -29 -145 -16 -73 -27 -133 -25 -133 3 0 28
12 57 27 41 21 66 26 122 26 77 0 103 -10 153 -56 115 -110 89 -394 -50 -537
-49 -52 -90 -71 -159 -77 -87 -8 -144 12 -201 68 l-48 48 -6 -27 c-18 -82 -11
-77 -119 -80 -54 -1 -104 -1 -110 2 -8 3 9 104 60 343 40 186 83 386 95 446
l23 107 118 0 c89 0 119 -3 119 -12z m2730 0 c0 -7 -12 -70 -26 -141 -15 -70
-25 -129 -22 -132 3 -3 27 7 53 21 69 39 171 40 236 2 70 -41 102 -108 107
-224 3 -66 0 -107 -13 -150 -50 -171 -139 -261 -270 -272 -84 -6 -144 16 -201
75 l-43 44 -7 -38 c-13 -73 -13 -73 -129 -73 -77 0 -105 3 -105 13 -1 6 41
209 92 450 l92 437 118 0 c88 0 118 -3 118 -12z m-4227 -228 c103 -12 144 -27
180 -66 52 -55 51 -127 -3 -379 -15 -70 -20 -117 -16 -157 l6 -58 -115 0 -115
0 -6 39 -6 39 -41 -29 c-97 -70 -254 -78 -340 -17 -66 47 -88 166 -44 243 37
65 101 91 292 115 88 12 168 23 178 26 22 7 23 66 2 88 -40 40 -149 27 -180
-20 -17 -26 -19 -26 -94 -20 -42 4 -93 9 -113 13 -35 5 -36 7 -27 32 31 80
116 135 234 150 98 12 109 12 208 1z m888 -16 c53 -17 94 -54 115 -102 16 -40
21 -37 -109 -52 l-98 -11 -20 25 c-50 64 -197 27 -174 -43 7 -24 41 -37 145
-57 169 -31 225 -76 224 -179 -1 -59 -19 -98 -66 -141 -75 -71 -186 -100 -347
-91 -114 6 -160 19 -202 55 -35 29 -76 109 -62 122 15 14 227 29 232 16 2 -6
17 -23 32 -38 68 -68 222 -8 180 70 -8 14 -29 24 -68 32 -215 42 -267 74 -280
168 -11 86 46 171 144 214 86 38 254 44 354 12z m1614 1 c69 -20 118 -64 156
-140 30 -61 31 -69 27 -152 -3 -73 -10 -99 -36 -155 -78 -162 -259 -238 -473
-198 -156 30 -250 175 -220 339 24 131 95 232 196 281 99 48 234 58 350 25z
m2757 -1 c39 -12 65 -29 100 -65 62 -63 83 -131 73 -235 l-7 -74 -251 -2 -252
-3 3 -30 c5 -40 30 -81 59 -94 43 -20 107 -13 149 15 38 26 40 26 143 18 61
-5 106 -14 108 -20 6 -18 -78 -98 -128 -122 -103 -50 -306 -56 -408 -12 -108
47 -166 151 -159 288 8 177 143 324 322 353 67 10 181 2 248 -17z m-2218 -21
c2 -16 10 -111 17 -213 6 -102 15 -192 20 -200 5 -10 41 53 119 213 l112 227
119 0 119 0 -22 -43 c-111 -212 -422 -749 -456 -787 -61 -69 -108 -85 -225
-77 -127 9 -139 13 -133 46 3 14 8 49 11 77 l6 51 51 -5 c61 -6 106 14 132 58
16 29 15 38 -44 341 -33 172 -60 318 -60 326 0 10 26 13 114 13 l114 0 6 -27z
m646 -382 c0 -4 -11 -58 -25 -119 -14 -61 -25 -113 -25 -116 0 -9 -248 -7
-253 2 -3 4 7 60 21 125 l25 117 129 0 c70 0 128 -4 128 -9z"/>
        <path d="M4079 945 c-14 -7 -38 -37 -54 -67 -23 -42 -30 -68 -33 -133 -4 -74
-2 -84 19 -109 16 -18 37 -29 65 -33 71 -9 124 55 146 177 13 74 4 125 -27
156 -28 27 -75 31 -116 9z"/>
        <path d="M6790 922 c-43 -43 -70 -117 -70 -193 0 -60 16 -97 51 -115 43 -22
75 -17 113 16 48 43 70 107 71 203 0 74 -2 80 -28 103 -44 37 -91 33 -137 -14z"/>
        <path d="M2480 734 c-126 -27 -171 -63 -150 -118 24 -64 125 -61 187 6 20 21
53 96 53 119 0 11 -9 10 -90 -7z"/>
        <path d="M4905 942 c-79 -37 -132 -200 -91 -280 31 -60 104 -78 164 -42 62 38
112 200 83 272 -22 56 -93 79 -156 50z"/>
        <path d="M7644 962 c-37 -23 -70 -67 -79 -105 l-7 -27 126 0 126 0 0 44 c0 62
-30 96 -90 103 -33 3 -53 -1 -76 -15z"/>
    </g>
</svg>